# xmcd
# 
# Track frame offsets:
#     150
#     13097
#     29825
#     39705
#     60400
#     69430
#     86305
#     97775
#     113510
#     131750
#     152305
#     167082
#     184990
#     195125
# 
# Disc length: 2901
# 
# Revision: 1
# Processed by: cddbd v1.5.2PL0 Copyright (c) Steve Scherf et al.
# Submitted via: fre:ac v1.0.31
# 
DISCID=a60b530e
DTITLE=Reiko Itokawa 糸川玲子 - La Belle Bete ラ・べル・べツト
DYEAR=1991
DGENRE=Jazz
TTITLE0=SARABANDE
TTITLE1=TRISTESSE PURE DE GIOVANNI
TTITLE2=EPIGRAPHE
TTITLE3=CINEMA PARADISO
TTITLE4=BEFORE LONG
TTITLE5=L'AU-DELA
TTITLE6=LA BELLE BETE
TTITLE7=SOREKARA
TTITLE8=SOLITUDE
TTITLE9=TABLAU-QUATUOR A CORDES EN SOL MINEUR, OP.10
TTITLE10=LOINTAIN
TTITLE11=LA GRANDE MAISON INHABITABLE
TTITLE12=LAST TANGO IN PARIS
TTITLE13=THATNESS AND THERENESS
EXTD=YEAR: 1991
EXTT0=
EXTT1=
EXTT2=
EXTT3=
EXTT4=
EXTT5=
EXTT6=
EXTT7=
EXTT8=
EXTT9=
EXTT10=
EXTT11=
EXTT12=
EXTT13=
PLAYORDER=
